<?xml version="1.0" encoding="utf-8"?><svg xmlns="http://www.w3.org/2000/svg" xmlns:xlink="http://www.w3.org/1999/xlink"><symbol viewBox="0 0 512 512" id="angle-down" xmlns="http://www.w3.org/2000/svg"><path d="M256 285l-88.4-88.4-30.4 30.4 88.4 88.4 30.4 30.4 30.4-30.4 88.4-88.4-30.4-30.4z"/></symbol><symbol viewBox="0 0 512 512" id="angle-left" xmlns="http://www.w3.org/2000/svg"><path d="M224 251l88.4-88.4-30.4-30.4-88.4 88.4-30.4 30.4 30.4 30.4 88.4 88.4 30.4-30.4z"/></symbol><symbol viewBox="0 0 512 512" id="angle-right" xmlns="http://www.w3.org/2000/svg"><path d="M289 251l-88.4 88.4 30.4 30.4 88.4-88.4 30.4-30.4-30.4-30.4-88.4-88.4-30.4 30.4z"/></symbol><symbol viewBox="0 0 512 512" id="angle-up" xmlns="http://www.w3.org/2000/svg"><path d="M256 220l88.4 88.4 30.4-30.4-88.4-88.4-30.4-30.4-30.4 30.4-88.4 88.4 30.4 30.4z"/></symbol><symbol viewBox="0 0 512 512" id="arrow-down" xmlns="http://www.w3.org/2000/svg"><path d="M400.61 269.08l-27.74-27.74-97.27 97.27V98.32h-39.22V338.6l-97.25-97.26-27.74 27.74L256 413.68l144.61-144.6z"/></symbol><symbol viewBox="0 0 512 512" id="arrow-left" xmlns="http://www.w3.org/2000/svg"><path d="M242.93 400.61l27.72-27.74-97.26-97.26h240.29v-39.23H173.4l97.25-97.25-27.72-27.74L98.32 256l144.61 144.61z"/></symbol><symbol viewBox="0 0 512 512" id="arrow-right" xmlns="http://www.w3.org/2000/svg"><path d="M269.08 111.39l-27.74 27.74 97.27 97.27H98.32v39.22H338.6l-97.26 97.25 27.74 27.74L413.68 256l-144.6-144.61z"/></symbol><symbol viewBox="0 0 512 512" id="arrow-up" xmlns="http://www.w3.org/2000/svg"><path d="M111.39 242.92l27.74 27.74 97.26-97.27v240.29h39.23V173.4l97.25 97.26 27.74-27.74L256 98.32l-144.61 144.6z"/></symbol><symbol viewBox="0 0 512 512" id="ban" xmlns="http://www.w3.org/2000/svg"><path d="M256 39.2c-120.5 0-218.2 97.7-218.2 218.2S135.5 475.7 256 475.7 474.2 378 474.2 257.5 376.5 39.2 256 39.2zM74.1 257.5c0-43.6 15.4-83.7 41.1-115l115 115 25.7 25.7 115 115c-31.4 25.7-71.4 41.1-115 41.1-100.2 0-181.8-81.6-181.8-181.8zm322.6 115l-115-115-25.7-25.8-115-115c31.4-25.7 71.4-41.1 115-41.1 100.3 0 181.9 81.6 181.9 181.9 0 43.6-15.5 83.6-41.2 115z"/></symbol><symbol viewBox="0 0 512 512" id="bars" xmlns="http://www.w3.org/2000/svg"><path d="M70.22 147.24h371.57v34.83H70.22zM70.22 379.47h371.57v34.83H70.22zM70.22 263.36h371.57v34.83H70.22z"/></symbol><symbol viewBox="0 0 512 512" id="book" xmlns="http://www.w3.org/2000/svg"><path d="M429.28 414.15h-95.16c-24.73 0-43.6 4.69-58.44 11.4V325.7H330V180.5c1.35-.06 2.7-.12 4.13-.12h95.16zm-342.36 0V180.38h95.16c1.44 0 2.78.07 4.16.12v192.79a92.74 92.74 0 0 0 10 41.42c-4.5-.36-9.19-.56-14.15-.56zm134.47-40.7a49 49 0 0 1 19.14-37.93V415l-5.22-5.22c-8-8-13.51-21.87-13.92-34.89zm0-239.08A47.64 47.64 0 0 1 269 86.78h25.86v203.77H269A81.29 81.29 0 0 0 221.39 306zm112.73 10.85c-1.42 0-2.76.09-4.13.13V51.63H269a82.84 82.84 0 0 0-82.74 82.74v11c-1.39-.05-2.73-.14-4.16-.14H51.77v304.06h130.31c34.44 0 52.51 10.95 66.09 23l8.38 8.38.19-.19 1.36 1.36c15.18-15.18 32.58-32.59 76-32.59h130.34V145.22z"/></symbol><symbol viewBox="0 0 512 512" id="calendar" xmlns="http://www.w3.org/2000/svg"><path d="M109.5 470.1c-35 0-63.5-28.5-63.5-63.5V160.5c0-35 28.5-63.5 63.5-63.5h25V39h36v58h174V39h36v58h21c35 0 63.5 28.5 63.6 63.5v246.1c0 35-28.5 63.5-63.5 63.5H109.5zM82 406.5c0 15.2 12.3 27.5 27.5 27.5h292c15.2 0 27.5-12.3 27.5-27.5v-171H82v171zM109.5 133C94.3 133 82 145.3 82 160.5v39h347.1v-39c0-15.2-12.3-27.5-27.5-27.5H109.5z"/><path d="M122.5 276.5h40v40h-40zM197.7 277h40v40h-40zM272.8 277h40v40h-40zM348 277h40v40h-40zM122.5 353.5h40v40h-40zM197.7 354h40v40h-40zM272.8 354h40v40h-40z"/></symbol><symbol viewBox="0 0 512 512" id="check" xmlns="http://www.w3.org/2000/svg"><path d="M198 342l-88.4-88.4L79.2 284l88.4 88.4 30.4 30.4 30.4-30.4L432.8 168l-30.4-30.4z"/></symbol><symbol viewBox="0 0 512 512" id="clock-o" xmlns="http://www.w3.org/2000/svg"><path d="M259.3 430.37c-94.45 0-171.3-76.83-171.3-171.29S164.85 87.81 259.3 87.81s171.28 76.83 171.28 171.27-76.83 171.29-171.28 171.29m0-389.28c-120.4 0-218 97.6-218 218s97.6 218 218 218 218-97.6 218-218-97.6-218-218-218"/><path d="M282.65 148.98h-46.71v119.78l80.11 80.12 33.04-33.04-66.44-66.42V148.98z"/></symbol><symbol viewBox="0 0 512 512" id="commenting-o" xmlns="http://www.w3.org/2000/svg"><path d="M380.71 128.69a51.41 51.41 0 0 1 52 52v124.7c0 30.1-21.86 51.95-52 51.95h-20.79a92.12 92.12 0 0 0-52 15.89 92.1 92.1 0 0 0-52-15.89H131.29c-30.1 0-52-21.85-52-51.95V180.65a51.41 51.41 0 0 1 52-52h249.42m0-31.18H131.29c-46.52 0-83.13 36.62-83.13 83.14v124.7c0 47.1 35.81 83.12 83.13 83.12H256a61.1 61.1 0 0 1 43.41 17.91l8.55 8.53 8.55-8.52a61.08 61.08 0 0 1 43.41-17.92h20.79c47.32 0 83.13-36 83.13-83.12V180.65c0-46.52-36.61-83.14-83.13-83.14z"/><path d="M135.45 185.84h241.1v31.18h-241.1zM135.45 268.97h241.1v31.18h-241.1z"/></symbol><symbol viewBox="0 0 512 512" id="globe" xmlns="http://www.w3.org/2000/svg"><path d="M259.3 41.76c-120.53 0-218.23 97.7-218.23 218.24s97.7 218.23 218.23 218.23S477.53 380.52 477.53 260 379.83 41.76 259.3 41.76zm16.37 145.59q32-.54 63.85-3.11a236.1 236.1 0 0 1 11.6 59.38h-75.45zm0-32.77V85.47a243.79 243.79 0 0 1 50.53 66.95q-25.2 1.76-50.53 2.16zm-32.74-69.11v69.11q-25.31-.42-50.53-2.16a243.79 243.79 0 0 1 50.53-66.95zm0 101.88v56.27h-75.45a236.54 236.54 0 0 1 11.6-59.38q31.86 2.59 63.85 3.11zm-108.24 56.27H74.63a183.77 183.77 0 0 1 20.58-69.87q25.17 4.25 50.6 7.19a268.91 268.91 0 0 0-11.12 62.68zm0 32.74a269.56 269.56 0 0 0 11.07 62.69q-25.41 2.93-50.52 7.18a183.88 183.88 0 0 1-20.58-69.87zm32.82 0h75.45v56.27q-32 .53-63.85 3.1a236.47 236.47 0 0 1-11.63-59.37zm75.45 89v69.12a243.94 243.94 0 0 1-50.53-66.95q25.19-1.73 50.5-2.14zm32.74 69.12v-69.09q25.31.44 50.53 2.17a243.79 243.79 0 0 1-50.56 66.95zm0-101.88v-56.24h75.45a236 236 0 0 1-11.6 59.37q-31.89-2.58-63.88-3.1zm108.25-56.27H444a184 184 0 0 1-20.57 69.87q-25.2-4.2-50.63-7.2a269.44 269.44 0 0 0 11.12-62.64zm0-32.74A269.38 269.38 0 0 0 372.74 181q25.45-2.94 50.65-7.2A183.77 183.77 0 0 1 444 243.62zm19.81-99.81q-21.26 3.25-42.68 5.52a272.23 272.23 0 0 0-41-64.41 186.08 186.08 0 0 1 83.62 58.92zM198.52 84.93a272.39 272.39 0 0 0-41 64.39q-21.37-2.28-42.57-5.51a186 186 0 0 1 83.57-58.88zM114.9 376.17q21.19-3.24 42.57-5.51A272.18 272.18 0 0 0 198.28 435a186 186 0 0 1-83.38-58.83zM320.1 435a272.33 272.33 0 0 0 41-64.38q21.36 2.28 42.56 5.51A186 186 0 0 1 320.1 435z"/></symbol><symbol viewBox="0 0 513 512" id="heart-o" xmlns="http://www.w3.org/2000/svg"><path d="M430.3 129.81A115.63 115.63 0 0 0 348 95.72c-55 0-82.69 33.42-91.47 46.59-8.78-13.17-36.47-46.59-91.46-46.59H165a116.44 116.44 0 0 0-82.3 198.71c23.91 23.91 45.83 43.22 67 61.9 29.87 26.34 58.1 51.21 87.69 85.34 3.39 3.92 16.18 20.42 16.31 20.59l2.77 3.57 2.77-3.57c.13-.17 12.92-16.67 16.31-20.59 29.59-34.13 57.82-59 87.69-85.34 21.2-18.68 43.12-38 67-61.91a116.52 116.52 0 0 0 0-164.61zm-22.11 142.5c-23.25 23.24-44.78 42.22-65.6 60.57-29.2 25.73-56.82 50.12-86.09 83.12-29.27-33.05-56.89-57.39-86.1-83.13-20.82-18.35-42.36-37.33-65.59-60.56A85.13 85.13 0 0 1 165.07 127c60.28 0 80.4 52.21 91.46 71.77C267.59 179.2 287.7 127 348 127a85.16 85.16 0 0 1 60.19 145.32z"/></symbol><symbol viewBox="0 0 920 512" id="helsinki-logo" xmlns="http://www.w3.org/2000/svg"><path d="M822.76 102.69V308c0 39.2-32.33 71.21-72.15 71.21H530.9a105.06 105.06 0 0 0-70.9 27.21 105.79 105.79 0 0 0-70.9-27.17H168.92A71.34 71.34 0 0 1 97.4 308V102.69zm-351 323.25a83.4 83.4 0 0 1 59.34-24.52h219.51c52 0 94.32-41.85 94.32-93.38V80.36H75.07v227.53c0 51.53 42 93.38 93.85 93.38H389.1a83.87 83.87 0 0 1 59.34 24.52l11.72 11.71z"/><path d="M738.28 196.23c0 6.87-5.47 11.87-12.34 11.87s-12.34-5-12.34-11.87 5.47-11.87 12.34-11.87a11.52 11.52 0 0 1 12.34 11.87m-23.12 97h21.4v-76h-21.4zm-38.41-45.93l28 45.91h-23.32l-18.74-30.45-10.15 12.8v17.65h-21.23V183.9h21.23v50.43a185.87 185.87 0 0 1-1.09 18.74h.47s5-8.27 9.21-14.21l16.24-21.7h25zm-67-2.81c0-18.9-9.22-29.21-23.9-29.21-12.49 0-19.05 7.34-22.8 14.37h-.46l1.09-12.49h-21.23v76h21.24v-45.08c0-8.75 5.15-14.84 13.12-14.84s11.4 5.31 11.4 15.46v44.51h21.39l.16-48.72zM522 196.23c0 6.87-5.47 11.87-12.34 11.87s-12.34-5-12.34-11.87 5.47-11.87 12.34-11.87A11.44 11.44 0 0 1 522 196.23m-23.12 97h21.4v-76h-21.4zM462 272c0-6.09-8.43-7.34-18.27-10.15-11.4-3-25.77-8.75-25.77-23.27s13.75-23.42 30-23.42c15.14 0 29 7.18 34.82 17.33l-18.27 10.31a16 16 0 0 0-15.93-12c-5.47 0-10 2.35-10 6.87 0 5.78 10 6.41 21.23 10 11.87 3.75 22.8 9.21 22.8 23.11 0 15.3-14.21 24.36-30.6 24.36-17.81 0-31.86-7.5-38.11-19.68L432.49 265c2.34 8.28 9.05 14.52 19.2 14.52 6.09 0 10.31-2.49 10.31-7.49m-67.62-87.45H373v87.61c0 7.8 1.72 13.58 5 17.17 3.43 3.59 8.74 5.31 16.08 5.31a42.24 42.24 0 0 0 7.65-.78 24.85 24.85 0 0 0 6.41-2.34l1.86-14.43a19.34 19.34 0 0 1-4.53 1.25 20.09 20.09 0 0 1-4.53.31c-2.81 0-4.06-.78-5-2.18-1.09-1.41-1.56-3.91-1.56-7.5v-84.48zm-71.18 46.01c-7.8 0-14.21 5.62-15.92 15.93h30c.16-9.06-5.78-15.93-14.06-15.93m32.95 30.29H307c.94 12.34 7.81 18.43 16.71 18.43 8 0 13.43-5.31 14.68-12.49l18 10.15c-5.31 9.68-16.71 18.11-32.64 18.11-21.23 0-36.85-14.83-36.85-39.82 0-24.83 15.93-39.82 36.38-39.82s34.05 14.52 34.05 35.14a59.31 59.31 0 0 1-1.1 10.3m-108.92 32.33h22.18V188.58h-22.18V230h-41.69v-41.26h-22.18v104.47h22.18V250h41.69z"/></symbol><symbol viewBox="0 0 512 512" id="home" xmlns="http://www.w3.org/2000/svg"><path d="M419.37 303.25l31.44 31.44 23.1-23.11L256 93.67 38.09 311.58l23.1 23.11 31.44-31.44v161.88h326.74zm-130.69 129.2h-65.35V323.78h65.35zm32.67 0V291.11h-130.7v141.34H125.3V270.58L256 139.88l130.7 130.7v161.87zM392.14 182.1h32.68c0-28.53-14.74-43.26-26.58-55.09-10.25-10.23-17-17-17-32s6.77-21.77 17-32c11.85-11.83 26.59-26.57 26.59-55.12h-32.69c0 15-6.76 21.77-17 32-11.85 11.83-26.59 26.56-26.59 55.11s14.74 43.29 26.6 55.13c10.23 10.23 16.99 16.98 16.99 31.97z"/></symbol><symbol viewBox="0 0 512 512" id="lips" xmlns="http://www.w3.org/2000/svg"><path d="M389.47 201c-18-17.95-39-32.61-67.44-32.61-37.7 0-45.26 14.17-66 14.17s-28.36-14.17-61.42-14.17S140.52 183 122.5 201c-19.06 19-74.34 76-74.34 76 37.77 52 103.9 108.7 207.86 108.7S426 329 463.84 277c0 0-55.3-57-74.37-76zm-246.86 20c14.8-14.79 28.35-24.31 52-24.31 28.25 0 33 14.17 61.4 14.17s33.16-14 61.41-14.17c23.62-.11 37.16 9.51 52 24.31 14.32 14.33 14.18 14 45.37 43.35-19.21-.24-31.7-4.39-43.83-8.43-10.71-3.57-21.79-7.27-35.56-7.27-24.06 0-37.77 7.82-48.78 14.1-9.34 5.33-16.72 9.53-30.58 9.53-13.64 0-21-4.19-30.37-9.5-11.09-6.29-24.88-14.13-49-14.13-13.75 0-24.79 3.68-35.48 7.24-12.12 4-24.6 8.17-43.81 8.36C128.43 235 128.3 235.32 142.61 221zM256 357.31c-60.45 0-112.24-23.11-154.78-64.8 21.7-.72 36.49-5.6 48.86-9.72 9.71-3.23 17.38-5.78 26.53-5.78 16.61 0 25.13 4.83 35 10.43 10.9 6.18 23.24 13.19 44.37 13.19 21.37 0 33.72-7 44.62-13.25 9.76-5.57 18.19-10.37 34.74-10.37 9.17 0 16.86 2.56 26.59 5.81 12.36 4.11 27.12 9 48.76 9.78-42.59 41.62-94.3 64.71-154.69 64.71z"/></symbol><symbol viewBox="0 0 512 512" id="map" xmlns="http://www.w3.org/2000/svg"><path d="M188.7 385.7L41 437.6v-314l147.5-51.9 129.8 54.4L466 72.3v314l-147.6 53.8-129.7-54.4zm18.1-32.2l93.5 43.8V158.4l-93.5-43.8v238.9zm129.7-195.3V397l93.5-37.5V120.7l-93.5 37.5zm-259.5-8V389l93.5-35.4V114.8L77 150.2z"/></symbol><symbol viewBox="0 0 512 512" id="map-marker" xmlns="http://www.w3.org/2000/svg"><path d="M256 155a68.59 68.59 0 1 0 68.59 68.59A68.59 68.59 0 0 0 256 155zm0 102.88a34.3 34.3 0 1 1 34.29-34.29A34.33 34.33 0 0 1 256 257.91z"/><path d="M378.45 102.37a174.39 174.39 0 0 0-244.9 0c-67.63 67-63.05 171.28 0 242.49C198.28 418 232.9 463.59 256 509.4c23.22-45.81 57.72-91.43 122.45-164.54 63.05-71.21 67.63-175.53 0-242.49zm-25.68 219.76c-44.37 50.13-74.49 87.29-96.77 120.15-22.2-32.76-52.35-69.95-96.79-120.15-25.57-28.88-39.92-64.59-40.39-100.56-.48-36.4 12.95-69.19 38.84-94.83a140.09 140.09 0 0 1 196.64 0c25.89 25.64 39.32 58.43 38.84 94.83-.45 35.97-14.8 71.68-40.37 100.56z"/></symbol><symbol viewBox="0 0 512 512" id="pencil" xmlns="http://www.w3.org/2000/svg"><path d="M173.044 314.46L385.26 102.243l22.324 22.324-212.217 212.216zM120.418 261.83L332.634 49.613l22.324 22.324L142.74 284.153zM92.92 364.23l16.71-62.33 45.62 45.62-62.33 16.71zM419.08 465.29c-32.17 0-48.77-11.72-63.42-22.06-12.9-9.11-23.09-16.3-45.27-16.3s-32.37 7.19-45.27 16.29c-14.65 10.35-31.27 22.07-63.46 22.07s-48.81-11.72-63.47-22.07c-12.9-9.1-23.1-16.29-45.27-16.29v-31.58c32.2 0 48.81 11.73 63.47 22.08 12.9 9.1 23.09 16.29 45.27 16.29s32.36-7.19 45.26-16.29c14.66-10.35 31.28-22.08 63.47-22.08s48.82 11.74 63.48 22.08c12.88 9.1 23.07 16.29 45.21 16.29z"/></symbol><symbol viewBox="0 0 512 512" id="quote-right" xmlns="http://www.w3.org/2000/svg"><path d="M433.17 216.13c3.9 10.54 6 22.68 6 36.47 0 62-50.78 112.47-113.2 112.47v35.1c81.77 0 148.29-66.2 148.29-147.57 0-90.3-52.15-132.79-108.3-132.79-52.11 0-92.5 42.24-92.5 88.65a84 84 0 0 0 84 84c46.42 0 86.59-37.62 86.59-84zM197.5 216.13c3.91 10.54 6 22.68 6 36.47 0 62-50.79 112.47-113.2 112.47v35.1c81.77 0 148.29-66.2 148.29-147.57 0-90.3-52.16-132.79-108.3-132.79-52.11 0-92.5 42.24-92.5 88.65a84 84 0 0 0 84 84c46.41 0 86.58-37.62 86.58-84z"/></symbol><symbol viewBox="0 0 512 512" id="search" xmlns="http://www.w3.org/2000/svg"><path d="M314.85 72.93a148.92 148.92 0 0 0-116 242.4L48.16 466l22.57 22.58L221.45 337.9a149 149 0 1 0 93.4-265zm0 266.05a117.06 117.06 0 1 1 117.06-117.06A117.2 117.2 0 0 1 314.85 339z"/></symbol><symbol viewBox="0 0 512 512" id="share-alt" xmlns="http://www.w3.org/2000/svg"><path d="M380.74 407.85a27.61 27.61 0 1 1 27.6-27.62 27.65 27.65 0 0 1-27.6 27.62M132.26 283.6a27.6 27.6 0 1 1 27.61-27.6 27.63 27.63 0 0 1-27.61 27.6m248.48-179.45a27.61 27.61 0 1 1-27.61 27.62 27.64 27.64 0 0 1 27.61-27.62m0 207.07A68.82 68.82 0 0 0 331 332.37L200.4 267a68.55 68.55 0 0 0 0-22l130.68-65.29a69 69 0 1 0-19.36-47.91 70.73 70.73 0 0 0 .85 10.86L181.81 208a69 69 0 1 0 0 96l130.74 65.43a69 69 0 1 0 68.17-58.22"/></symbol><symbol viewBox="0 0 512 512" id="smile-o" xmlns="http://www.w3.org/2000/svg"><circle cx="195.71" cy="215.81" r="28.87"/><circle cx="345.82" cy="215.81" r="28.87"/><path d="M270.76 83C366.27 83 444 160.72 444 256.22s-77.7 173.2-173.21 173.2-173.2-77.7-173.2-173.2S175.26 83 270.76 83m0-34.64C156 48.38 62.92 141.43 62.92 256.22S156 464.06 270.76 464.06 478.61 371 478.61 256.22 385.55 48.38 270.76 48.38z"/><path d="M270.76 382.66A125.65 125.65 0 0 1 157 311.53l31.14-15.17a91.84 91.84 0 0 0 165.17 0l31.14 15.18a125.67 125.67 0 0 1-113.69 71.12z"/></symbol><symbol viewBox="0 0 512 512" id="sync" xmlns="http://www.w3.org/2000/svg"><path d="M455.7 205.5L415 215.8c17.7 70-11.8 142.4-73.5 180.2-44.7 27.4-99.3 31.6-147.2 12.2l26.5-29.4-122.6-26.1L136.9 472l28.1-31.1c28.7 14.2 59.9 21.2 91 21.2 37.3 0 74.6-10.1 107.6-30.4 77.4-47.4 114.5-138.2 92.1-226.2zM170.3 116c44.7-27.4 99.3-31.6 147.2-12.2L291 133.2l122.8 26.1L375.1 40 347 71.1C283.8 40 209 43.2 148.4 80.3 72.7 126.6 35.3 215.7 55.1 302.2l40.9-9.4c-15.8-68.9 14-139.9 74.3-176.8z"/></symbol><symbol viewBox="0 0 512 512" id="ticket" xmlns="http://www.w3.org/2000/svg"><path d="M384.91 201.38a21 21 0 1 0-26.52 32.4l-62.54 62.54a206.75 206.75 0 0 0-52.15 87l-118.57-50.7c5.09-24.42 17-47.28 33.92-64.2l70.67-70.67a212.6 212.6 0 0 0 17.76-20.21 21 21 0 1 0 21.72-34.73 205.13 205.13 0 0 0 12.66-32.05l118.21 50.67a133.11 133.11 0 0 1-15.16 39.93M248.55 50.74A165.34 165.34 0 0 1 200 168l-70.7 70.69c-30 30-49 74.72-49 120.52L277 443.34a165.29 165.29 0 0 1 48.6-117.28l70.67-70.67c30-30 48.57-74.72 48.57-120.52z"/><path d="M325.62 170.69A21 21 0 1 0 335 198.9a21 21 0 0 0-9.39-28.21"/></symbol><symbol viewBox="0 0 512 512" id="times" xmlns="http://www.w3.org/2000/svg"><path d="M374.8 167.6l-30.4-30.4-88.4 88.4-88.4-88.4-30.4 30.4 88.4 88.4-88.4 88.4 30.4 30.4 88.4-88.4 88.4 88.4 30.4-30.4-88.4-88.4z"/></symbol><symbol viewBox="0 0 512 512" id="times-circle-o" xmlns="http://www.w3.org/2000/svg"><path d="M339.43 148.31L256 231.73l-83.43-83.42-25.71 25.72 83.42 83.42-83.42 83.43 25.71 25.72L256 283.17l83.43 83.43 25.71-25.72-83.42-83.43 83.42-83.42-25.71-25.72z"/><path d="M256 39.22c-120.53 0-218.23 97.71-218.23 218.23S135.47 475.69 256 475.69 474.23 378 474.23 257.45 376.53 39.22 256 39.22zm0 400.09c-100.28 0-181.86-81.58-181.86-181.86S155.72 75.59 256 75.59s181.86 81.58 181.86 181.86S356.28 439.31 256 439.31z"/></symbol><symbol viewBox="0 0 512 512" id="trash-o" xmlns="http://www.w3.org/2000/svg"><path d="M350.66 70.31a123.85 123.85 0 0 1-83-31.75L256 28.08l-11.65 10.48a123.85 123.85 0 0 1-83 31.75H93.44l3.07 34.84h64.84A158.75 158.75 0 0 0 256 74a158.75 158.75 0 0 0 94.66 31.17h64.83l3.07-34.84zM128.28 465.13h255.45L412.36 140H99.59zm246.05-290.29l-22.5 255.45H311l7.35-220.62h-34.89l-7.34 220.62h-40.24l-7.34-220.62h-34.86L201 430.29h-40.83l-22.54-255.45z"/></symbol><symbol viewBox="0 0 512 512" id="twitter" xmlns="http://www.w3.org/2000/svg"><path d="M480.63 127.06a175.05 175.05 0 0 1-50.33 13.81 88 88 0 0 0 38.53-48.46 176.61 176.61 0 0 1-55.69 21.28 87.72 87.72 0 0 0-149.36 79.91A248.85 248.85 0 0 1 83.14 102a87.73 87.73 0 0 0 27.12 117 87.62 87.62 0 0 1-39.7-11v1.1a87.74 87.74 0 0 0 70.3 85.94 88.55 88.55 0 0 1-23.09 3.07 83.94 83.94 0 0 1-16.5-1.63 87.7 87.7 0 0 0 81.86 60.88 175.91 175.91 0 0 1-108.86 37.47 184.87 184.87 0 0 1-20.9-1.21 247.67 247.67 0 0 0 134.35 39.44c161.23 0 249.37-133.55 249.37-249.37l-.3-11.35a174.94 174.94 0 0 0 43.84-45.28z"/></symbol><symbol viewBox="0 0 512 512" id="user-o" xmlns="http://www.w3.org/2000/svg"><path d="M256 76.76a66.62 66.62 0 1 1-66.62 66.62A66.69 66.69 0 0 1 256 76.76m0-32a98.6 98.6 0 1 0 98.59 98.6A98.59 98.59 0 0 0 256 44.78zM341.27 300.59a64 64 0 0 1 64 64v63.95H106.78v-63.99a64 64 0 0 1 64-64h170.49m0-32H170.74a95.94 95.94 0 0 0-95.94 96v95.92h362.4v-95.93a95.93 95.93 0 0 0-95.93-95.93z"/></symbol></svg>